<svg width="23" height="17" viewBox="0 0 23 17" fill="none" xmlns="http://www.w3.org/2000/svg">
<path d="M1.168 15.144C2.064 14.2053 2.768 13.3307 3.28 12.52C3.792 11.7093 4.048 11.048 4.048 10.536C4.048 10.2373 3.94133 9.96 3.728 9.704C3.55733 9.448 3.28 9.17067 2.896 8.872C2.29867 8.40267 1.82933 7.912 1.488 7.4C1.14667 6.888 0.976 6.20533 0.976 5.352C0.976 4.02933 1.38133 2.96266 2.192 2.152C3.00267 1.29866 4.02667 0.871998 5.264 0.871998C6.58667 0.871998 7.65333 1.29866 8.464 2.152C9.31733 2.96266 9.744 4.02933 9.744 5.352C9.744 7.016 9.04 8.85067 7.632 10.856C6.26667 12.8187 4.432 14.568 2.128 16.104L1.168 15.144ZM13.584 15.144C14.48 14.2053 15.184 13.3307 15.696 12.52C16.208 11.7093 16.464 11.048 16.464 10.536C16.464 10.2373 16.3573 9.96 16.144 9.704C15.9733 9.448 15.696 9.17067 15.312 8.872C14.7147 8.40267 14.2453 7.912 13.904 7.4C13.5627 6.888 13.392 6.20533 13.392 5.352C13.392 4.02933 13.7973 2.96266 14.608 2.152C15.4187 1.29866 16.4427 0.871998 17.68 0.871998C19.0027 0.871998 20.0693 1.29866 20.88 2.152C21.7333 2.96266 22.16 4.02933 22.16 5.352C22.16 7.016 21.456 8.85067 20.048 10.856C18.6827 12.8187 16.848 14.568 14.544 16.104L13.584 15.144Z" fill="#646464"/>
</svg>
