<svg width="23" height="17" viewBox="0 0 23 17" fill="none" xmlns="http://www.w3.org/2000/svg">
<path d="M5.432 16.104C4.10933 16.104 3.02133 15.6987 2.168 14.888C1.35733 14.0347 0.952 12.9467 0.952 11.624C0.952 9.96 1.63467 8.14666 3 6.184C4.408 4.17867 6.264 2.408 8.568 0.871998L9.528 1.832C8.632 2.77066 7.928 3.64533 7.416 4.456C6.904 5.26666 6.648 5.928 6.648 6.44C6.648 6.73866 6.73333 7.016 6.904 7.272C7.11733 7.528 7.416 7.80533 7.8 8.104C8.39733 8.57333 8.86667 9.064 9.208 9.576C9.54933 10.088 9.72 10.7707 9.72 11.624C9.72 12.9467 9.31467 14.0347 8.504 14.888C7.69333 15.6987 6.66933 16.104 5.432 16.104ZM17.848 16.104C16.5253 16.104 15.4373 15.6987 14.584 14.888C13.7733 14.0347 13.368 12.9467 13.368 11.624C13.368 9.96 14.0507 8.14666 15.416 6.184C16.824 4.17867 18.68 2.408 20.984 0.871998L21.944 1.832C21.048 2.77066 20.344 3.64533 19.832 4.456C19.32 5.26666 19.064 5.928 19.064 6.44C19.064 6.73866 19.1493 7.016 19.32 7.272C19.5333 7.528 19.832 7.80533 20.216 8.104C20.8133 8.57333 21.2827 9.064 21.624 9.576C21.9653 10.088 22.136 10.7707 22.136 11.624C22.136 12.9467 21.7307 14.0347 20.92 14.888C20.1093 15.6987 19.0853 16.104 17.848 16.104Z" fill="#646464"/>
</svg>
